# xmcd
#
# Track frame offsets:
#	150
#	22623
#	32896
#	55552
#	88391
#	127188
#	146572
#
# Disc length: 2215 seconds
#
# Revision: 0
# Processed by: cddbd v1.5.1PL0 Copyright (c) Steve Scherf et al.
# Submitted via: EasyCDDAExtractor 4.6.9.1
#
DISCID=5908a507
DTITLE=Depeche Mode - Live Chile 10.04.1994 - CD2
DYEAR=1994
DGENRE=live
TTITLE0=I Want You Now
TTITLE1=In Your Room
TTITLE2=Never Let Me Down Again
TTITLE3=I Feel You
TTITLE4=Personal Jesus
TTITLE5=Somebody
TTITLE6=Enjoy The Silence
EXTD=
EXTT0=
EXTT1=
EXTT2=
EXTT3=
EXTT4=
EXTT5=
EXTT6=
PLAYORDER=
